HIERARCHY
ROOT pelvis
{
  OFFSET 0 100 0
  CHANNELS 6 Xposition Yposition Zposition Zrotation Xrotation Yrotation
  JOINT pelvis_right_femur
  {
    OFFSET -10.78128 -3.44521 -0.5502486
    CHANNELS 3 Zrotation Xrotation Yrotation
    JOINT right_femur_tibia
    {
      OFFSET -0.8047443 -44.0398 -0.1307829
      CHANNELS 3 Zrotation Xrotation Yrotation
      JOINT right_tibia_foot
      {
        OFFSET 3.006224 -47.83518 -5
        CHANNELS 3 Zrotation Xrotation Yrotation
        End Site
        {
          OFFSET 0 -5 15
        }
      }
    }
  }
  JOINT pelvis_left_femur
  {
    OFFSET 10.78128 -3.44521 -0.5502486
    CHANNELS 3 Zrotation Xrotation Yrotation
    JOINT left_femur_tibia
    {
      OFFSET 0.8047443 -44.0398 -0.1307829
      CHANNELS 3 Zrotation Xrotation Yrotation
      JOINT left_tibia_foot
      {
        OFFSET -4.370144 -48.10324 -4.275266
        CHANNELS 3 Zrotation Xrotation Yrotation
        End Site
        {
          OFFSET 0 -5 15
        }
      }
    }
  }
  JOINT pelvis_spine1
  {
    OFFSET 0 6.468898 -3.129235
    CHANNELS 3 Zrotation Xrotation Yrotation
    JOINT spine1
    {
      OFFSET 0 23.15396 4.99043
      CHANNELS 3 Zrotation Xrotation Yrotation
      JOINT spine2
      {
        OFFSET 0 20.79997 -5.064912
        CHANNELS 3 Zrotation Xrotation Yrotation
        JOINT neck
        {
          OFFSET 0 14.38658 9.616178
          CHANNELS 3 Zrotation Xrotation Yrotation
          End Site
          {
            OFFSET 0 20 0
          }
        }
      }
      JOINT right_manubrium
      {
        OFFSET -5.722621 16.35077 3.967754
        CHANNELS 3 Zrotation Xrotation Yrotation
        JOINT right_clavicle
        {
          OFFSET -13.16364 1.694482 -4.693211
          CHANNELS 3 Zrotation Xrotation Yrotation
          JOINT right_humerus
          {
            OFFSET -28.5034 -0.3100689 -2.792744
            CHANNELS 3 Zrotation Xrotation Yrotation
            JOINT right_radius
            {
              OFFSET -25.15693 0.02248979 -1.271978
              CHANNELS 3 Zrotation Xrotation Yrotation
              End Site
              {
                OFFSET -15 0 0
              }
            }
          }
        }
      }
      JOINT left_manubrium
      {
        OFFSET 5.722621 16.35077 3.967754
        CHANNELS 3 Zrotation Xrotation Yrotation
        JOINT left_clavicle
        {
          OFFSET 13.16364 1.694482 -4.693211
          CHANNELS 3 Zrotation Xrotation Yrotation
          JOINT left_humerus
          {
            OFFSET 29.39168 -1.063119 -2.237045
            CHANNELS 3 Zrotation Xrotation Yrotation
            JOINT left_radius
            {
              OFFSET 24.59957 -0.9528479 0.9047498
              CHANNELS 3 Zrotation Xrotation Yrotation
              End Site
              {
                OFFSET 15 -0 -0
              }
            }
          }
        }
      }
    }
  }
}
MOTION
Frames: 15
Frame Time: 0.0416666666667
-125.3558 103.3823 -114.0953 7.681838 -9.236999 33.02964 5.161498 3.93587 -4.561191 -0 15.16809 -0 -16.9299 2.848397 1.254216 1.604044 -12.15087 1.43327 -0 29.28201 -0 -1.127502 -1.45421 11.6523 0.7075573 -2.403464 9.410677 -0.8925657 17.81405 -7.104253 -2.044545 20.3064 5.077022 8.55504 -11.81867 -2.774994 -0.3104219 -28.6569 14.00148 91.49146 17.53228 -18.61398 -0 0 25.00812 -22.38525 6.109553 4.772504 5.122463 -31.71387 -14.50317 -93.06133 3.613155 33.83665 0 0 -12.71955 11.67386 11.89512 -2.567315
-121.3701 103.3826 -109.5206 7.569514 -9.329005 32.33332 5.161498 3.93587 -4.561191 -0 15.16809 -0 -16.9299 2.848397 1.254216 1.604044 -12.15087 1.43327 -0 29.28201 -0 -1.127502 -1.45421 11.6523 0.7075573 -2.403464 9.410677 -0.8925657 17.81405 -7.104253 -2.044545 20.3064 5.077022 8.55504 -11.81867 -2.774994 -0.3104219 -28.6569 14.00148 91.49146 17.53228 -18.61398 -0 0 25.00812 -22.38525 6.109553 4.772504 5.122463 -31.71387 -14.50317 -93.06133 3.613155 33.83665 0 0 -12.71955 11.67386 11.89512 -2.567315
-117.44 103.3829 -104.898 7.456035 -9.419656 31.63665 5.161498 3.93587 -4.561191 -0 15.16809 -0 -16.9299 2.848397 1.254216 1.604044 -12.15087 1.43327 -0 29.28201 -0 -1.127502 -1.45421 11.6523 0.7075573 -2.403464 9.410677 -0.8925657 17.81405 -7.104253 -2.044545 20.3064 5.077022 8.55504 -11.81867 -2.774994 -0.3104219 -28.6569 14.00148 91.49146 17.53228 -18.61398 -0 0 25.00812 -22.38525 6.109553 4.772504 5.122463 -31.71387 -14.50317 -93.06133 3.613155 33.83665 0 0 -12.71955 11.67386 11.89512 -2.567315
-113.5662 103.3831 -100.2282 7.341417 -9.508939 30.93961 5.161498 3.93587 -4.561191 -0 15.16809 -0 -16.9299 2.848397 1.254216 1.604044 -12.15087 1.43327 -0 29.28201 -0 -1.127502 -1.45421 11.6523 0.7075573 -2.403464 9.410677 -0.8925657 17.81405 -7.104253 -2.044545 20.3064 5.077022 8.55504 -11.81867 -2.774994 -0.3104219 -28.6569 14.00148 91.49146 17.53228 -18.61398 -0 0 25.00812 -22.38525 6.109553 4.772504 5.122463 -31.71387 -14.50317 -93.06133 3.613155 33.83665 0 0 -12.71955 11.67386 11.89512 -2.567315
-109.7492 103.3834 -95.51187 7.225676 -9.59684 30.24221 5.161498 3.93587 -4.561191 -0 15.16809 -0 -16.9299 2.848397 1.254216 1.604044 -12.15087 1.43327 -0 29.28201 -0 -1.127502 -1.45421 11.6523 0.7075573 -2.403464 9.410677 -0.8925657 17.81405 -7.104253 -2.044545 20.3064 5.077022 8.55504 -11.81867 -2.774994 -0.3104219 -28.6569 14.00148 91.49146 17.53228 -18.61398 -0 0 25.00812 -22.38525 6.109553 4.772504 5.122463 -31.71387 -14.50317 -93.06133 3.613155 33.83665 0 0 -12.71955 11.67386 11.89512 -2.567315
-105.9895 103.3836 -90.7497 7.108829 -9.683344 29.54445 5.161498 3.93587 -4.561191 -0 15.16809 -0 -16.9299 2.848397 1.254216 1.604044 -12.15087 1.43327 -0 29.28201 -0 -1.127502 -1.45421 11.6523 0.7075573 -2.403464 9.410677 -0.8925657 17.81405 -7.104253 -2.044545 20.3064 5.077022 8.55504 -11.81867 -2.774994 -0.3104219 -28.6569 14.00148 91.49146 17.53228 -18.61398 -0 0 25.00812 -22.38525 6.109553 4.772504 5.122463 -31.71387 -14.50317 -93.06133 3.613155 33.83665 0 0 -12.71955 11.67386 11.89512 -2.567315
-102.2877 103.3839 -85.94238 6.990891 -9.768439 28.84633 5.161498 3.93587 -4.561191 -0 15.16809 -0 -16.9299 2.848397 1.254216 1.604044 -12.15087 1.43327 -0 29.28201 -0 -1.127502 -1.45421 11.6523 0.7075573 -2.403464 9.410677 -0.8925657 17.81405 -7.104253 -2.044545 20.3064 5.077022 8.55504 -11.81867 -2.774994 -0.3104219 -28.6569 14.00148 91.49146 17.53228 -18.61398 -0 0 25.00812 -22.38525 6.109553 4.772504 5.122463 -31.71387 -14.50317 -93.06133 3.613155 33.83665 0 0 -12.71955 11.67386 11.89512 -2.567315
-98.64439 103.3842 -81.09062 6.87188 -9.852111 28.14786 5.161498 3.93587 -4.561191 -0 15.16809 -0 -16.9299 2.848397 1.254216 1.604044 -12.15087 1.43327 -0 29.28201 -0 -1.127502 -1.45421 11.6523 0.7075573 -2.403464 9.410677 -0.8925657 17.81405 -7.104253 -2.044545 20.3064 5.077022 8.55504 -11.81867 -2.774994 -0.3104219 -28.6569 14.00148 91.49146 17.53228 -18.61398 -0 0 25.00812 -22.38525 6.109553 4.772504 5.122463 -31.71387 -14.50317 -93.06133 3.613155 33.83665 0 0 -12.71955 11.67386 11.89512 -2.567315
-95.06002 103.3844 -76.19513 6.751812 -9.934347 27.44904 5.161498 3.93587 -4.561191 -0 15.16809 -0 -16.9299 2.848397 1.254216 1.604044 -12.15087 1.43327 -0 29.28201 -0 -1.127502 -1.45421 11.6523 0.7075573 -2.403464 9.410677 -0.8925657 17.81405 -7.104253 -2.044545 20.3064 5.077022 8.55504 -11.81867 -2.774994 -0.3104219 -28.6569 14.00148 91.49146 17.53228 -18.61398 -0 0 25.00812 -22.38525 6.109553 4.772504 5.122463 -31.71387 -14.50317 -93.06133 3.613155 33.83665 0 0 -12.71955 11.67386 11.89512 -2.567315
-91.53516 103.3847 -71.25663 6.630704 -10.01513 26.74986 5.161498 3.93587 -4.561191 -0 15.16809 -0 -16.9299 2.848397 1.254216 1.604044 -12.15087 1.43327 -0 29.28201 -0 -1.127502 -1.45421 11.6523 0.7075573 -2.403464 9.410677 -0.8925657 17.81405 -7.104253 -2.044545 20.3064 5.077022 8.55504 -11.81867 -2.774994 -0.3104219 -28.6569 14.00148 91.49146 17.53228 -18.61398 -0 0 25.00812 -22.38525 6.109553 4.772504 5.122463 -31.71387 -14.50317 -93.06133 3.613155 33.83665 0 0 -12.71955 11.67386 11.89512 -2.567315
-88.07032 103.3849 -66.27584 6.508574 -10.09446 26.05035 5.161498 3.93587 -4.561191 -0 15.16809 -0 -16.9299 2.848397 1.254216 1.604044 -12.15087 1.43327 -0 29.28201 -0 -1.127502 -1.45421 11.6523 0.7075573 -2.403464 9.410677 -0.8925657 17.81405 -7.104253 -2.044545 20.3064 5.077022 8.55504 -11.81867 -2.774994 -0.3104219 -28.6569 14.00148 91.49146 17.53228 -18.61398 -0 0 25.00812 -22.38525 6.109553 4.772504 5.122463 -31.71387 -14.50317 -93.06133 3.613155 33.83665 0 0 -12.71955 11.67386 11.89512 -2.567315
-84.666 103.3852 -61.25348 6.38544 -10.17231 25.35049 5.161498 3.93587 -4.561191 -0 15.16809 -0 -16.9299 2.848397 1.254216 1.604044 -12.15087 1.43327 -0 29.28201 -0 -1.127502 -1.45421 11.6523 0.7075573 -2.403464 9.410677 -0.8925657 17.81405 -7.104253 -2.044545 20.3064 5.077022 8.55504 -11.81867 -2.774994 -0.3104219 -28.6569 14.00148 91.49146 17.53228 -18.61398 -0 0 25.00812 -22.38525 6.109553 4.772504 5.122463 -31.71387 -14.50317 -93.06133 3.613155 33.83665 0 0 -12.71955 11.67386 11.89512 -2.567315
-81.3227 103.3854 -56.1903 6.261318 -10.24867 24.6503 5.161498 3.93587 -4.561191 -0 15.16809 -0 -16.9299 2.848397 1.254216 1.604044 -12.15087 1.43327 -0 29.28201 -0 -1.127502 -1.45421 11.6523 0.7075573 -2.403464 9.410677 -0.8925657 17.81405 -7.104253 -2.044545 20.3064 5.077022 8.55504 -11.81867 -2.774994 -0.3104219 -28.6569 14.00148 91.49146 17.53228 -18.61398 -0 0 25.00812 -22.38525 6.109553 4.772504 5.122463 -31.71387 -14.50317 -93.06133 3.613155 33.83665 0 0 -12.71955 11.67386 11.89512 -2.567315
-78.04091 103.3857 -51.08703 6.136227 -10.32354 23.94977 5.161498 3.93587 -4.561191 -0 15.16809 -0 -16.9299 2.848397 1.254216 1.604044 -12.15087 1.43327 -0 29.28201 -0 -1.127502 -1.45421 11.6523 0.7075573 -2.403464 9.410677 -0.8925657 17.81405 -7.104253 -2.044545 20.3064 5.077022 8.55504 -11.81867 -2.774994 -0.3104219 -28.6569 14.00148 91.49146 17.53228 -18.61398 -0 0 25.00812 -22.38525 6.109553 4.772504 5.122463 -31.71387 -14.50317 -93.06133 3.613155 33.83665 0 0 -12.71955 11.67386 11.89512 -2.567315
-74.82112 103.386 -45.94442 6.010186 -10.39689 23.24891 5.161498 3.93587 -4.561191 -0 15.16809 -0 -16.9299 2.848397 1.254216 1.604044 -12.15087 1.43327 -0 29.28201 -0 -1.127502 -1.45421 11.6523 0.7075573 -2.403464 9.410677 -0.8925657 17.81405 -7.104253 -2.044545 20.3064 5.077022 8.55504 -11.81867 -2.774994 -0.3104219 -28.6569 14.00148 91.49146 17.53228 -18.61398 -0 0 25.00812 -22.38525 6.109553 4.772504 5.122463 -31.71387 -14.50317 -93.06133 3.613155 33.83665 0 0 -12.71955 11.67386 11.89512 -2.567315
